<svg id="Layer_2" data-name="Layer 2" xmlns="http://www.w3.org/2000/svg" viewBox="0 0 199.5 40.3"><defs><style>.cls-1{fill:#000000;}.cls-2,.cls-5{fill:#017361;}.cls-3{fill:#e1c4ac;}.cls-4{fill:#a51417;}.cls-5{fill-rule:evenodd;}</style></defs><title>stlouis</title><path class="cls-1" d="M12.6,2.5h0A52.7,52.7,0,0,1,1.8,1.3V19.2h0v.5h0a3.9,3.9,0,0,0,.8,2.1,5.6,5.6,0,0,0,1.4,1l.6.3.5.2h0l.7.3,6.8,2.6h0l6.8-2.6.7-.3h0l.5-.2.6-.3a5.6,5.6,0,0,0,1.4-1,3.2,3.2,0,0,0,.8-2.1h0v-.5h0V1.3A52.1,52.1,0,0,1,12.6,2.5Z"/><path class="cls-2" d="M12.6,3.6h0A52.4,52.4,0,0,1,2.7,2.4V18.9h0v.5h0a3.3,3.3,0,0,0,.8,1.9l1.3,1,.5.2.4.2h0l.7.3,6.2,2.4h0L18.8,23l.7-.3h0l.4-.2.6-.2,1.2-1a3.3,3.3,0,0,0,.8-1.9h0v-.5h0V2.4A52.4,52.4,0,0,1,12.6,3.6Z"/><path class="cls-3" d="M12.6,4.6h0a47.3,47.3,0,0,1-9-1.1V7.7a47.3,47.3,0,0,0,9,1.1h0a47.3,47.3,0,0,0,9-1.1V3.5A47.3,47.3,0,0,1,12.6,4.6Z"/><path class="cls-4" d="M12.6,8.8h0a47.3,47.3,0,0,1-9-1.1v9.4a42.2,42.2,0,0,0,9,1h0a42.2,42.2,0,0,0,9-1V7.7A47.3,47.3,0,0,1,12.6,8.8Z"/><path class="cls-3" d="M3.6,19h0a2.4,2.4,0,0,0,.6,1.7l1.2.9.5.3.4.2h0l.6.2,5.7,2.2h0l5.7-2.2.6-.2h0l.4-.2.5-.3,1.2-.9a2.4,2.4,0,0,0,.6-1.7h0v-.4h0V17.1a42.2,42.2,0,0,1-9,1h0a42.2,42.2,0,0,1-9-1V19Z"/><polygon class="cls-5" points="6.8 4.5 7.2 5.8 8.5 5.8 7.4 6.6 7.8 7.8 6.8 7.1 5.7 7.8 6.1 6.6 5 5.8 6.3 5.8 6.8 4.5"/><polygon class="cls-5" points="18.4 4.5 18.9 5.8 20.2 5.8 19.1 6.6 19.5 7.8 18.4 7.1 17.4 7.8 17.8 6.6 16.7 5.8 18 5.8 18.4 4.5"/><polygon class="cls-5" points="12.6 5 13 6.3 14.4 6.3 13.3 7.1 13.7 8.3 12.6 7.6 11.5 8.3 11.9 7.1 10.8 6.3 12.2 6.3 12.6 5"/><polygon class="cls-2" points="12.6 18.5 12.1 18.9 12.1 18.9 12.1 20.2 12.1 20.2 12.1 20.2 12.1 20.2 12.1 20.2 12.4 20.9 12.4 22 12.8 22 12.8 20.9 13.1 20.2 13.1 20.2 13.1 18.9 12.6 18.5"/><polygon class="cls-2" points="12.8 23 12.8 22.3 12.4 22.3 12.4 23 12.1 23.4 12.6 24 13.1 23.4 12.8 23"/><polygon class="cls-2" points="13.2 22.3 13.2 22.9 13.5 23.2 14 22.8 14 22.3 13.2 22.3"/><polygon class="cls-2" points="13.7 20.2 13.2 20.9 13.2 22 13.6 22 13.6 21.3 14.1 20.8 14.1 20.8 14.6 21.2 15 20.8 15 20.2 13.7 20.2"/><polygon class="cls-2" points="12 22.3 12 22.9 11.7 23.2 11.2 22.8 11.2 22.3 12 22.3"/><polygon class="cls-2" points="11.5 20.2 12 20.9 12 22 11.6 22 11.6 21.3 11.1 20.8 11.1 20.8 10.6 21.2 10.2 20.8 10.2 20.2 11.5 20.2"/><polygon class="cls-3" points="16.9 10.3 16.9 15.6 13.3 15.6 13 15.8 12.6 16.2 12.2 15.8 11.9 15.6 8.3 15.6 8.3 10.3 7.5 10.8 7.5 16.4 11.8 16.4 12.2 16.7 12.6 17.1 13 16.7 13.4 16.4 17.7 16.4 17.7 10.8 16.9 10.3"/><polygon class="cls-3" points="13.2 9.8 13 9.9 12.6 10.3 12.2 9.9 12 9.8 9.1 9.8 9.1 14.9 12 14.9 12.2 15 12.6 15.4 13 15 13.2 14.9 16.1 14.9 16.1 9.8 13.2 9.8"/><path class="cls-3" d="M18.4,11.4v3.4l3.2-.6V10.8Z"/><path class="cls-3" d="M6.8,11.4l-3.2-.6v3.4l3.2.6Z"/><polygon class="cls-2" points="18.4 18 18.1 18.3 18.1 18.3 18.1 19.2 18.1 19.2 18.1 19.2 18.1 19.2 18.1 19.2 18.3 19.7 18.3 20.5 18.6 20.5 18.6 19.7 18.8 19.2 18.8 19.2 18.8 18.3 18.4 18"/><polygon class="cls-2" points="18.6 21.2 18.6 20.7 18.3 20.7 18.3 21.2 18.1 21.5 18.4 21.9 18.8 21.5 18.6 21.2"/><polygon class="cls-2" points="18.8 20.7 18.8 21.1 19.1 21.3 19.4 21 19.4 20.7 18.8 20.7"/><polygon class="cls-2" points="19.2 19.2 18.8 19.7 18.8 20.5 19.2 20.5 19.2 20 19.5 19.7 19.5 19.7 19.9 19.9 20.1 19.7 20.1 19.2 19.2 19.2"/><polygon class="cls-2" points="18 20.7 18 21.1 17.8 21.3 17.5 21 17.5 20.7 18 20.7"/><polygon class="cls-2" points="17.7 19.2 18 19.7 18 20.5 17.7 20.5 17.7 20 17.4 19.7 17.4 19.7 17 19.9 16.8 19.7 16.8 19.2 17.7 19.2"/><polygon class="cls-2" points="6.8 18 6.4 18.3 6.4 18.3 6.4 19.2 6.4 19.2 6.4 19.2 6.4 19.2 6.4 19.2 6.6 19.7 6.6 20.5 6.9 20.5 6.9 19.7 7.1 19.2 7.1 19.2 7.1 18.3 6.8 18"/><polygon class="cls-2" points="6.9 21.2 6.9 20.7 6.6 20.7 6.6 21.2 6.4 21.5 6.8 21.9 7.1 21.5 6.9 21.2"/><polygon class="cls-2" points="7.2 20.7 7.2 21.1 7.4 21.3 7.7 21 7.7 20.7 7.2 20.7"/><polygon class="cls-2" points="7.6 19.2 7.2 19.7 7.2 20.5 7.5 20.5 7.5 20 7.8 19.7 7.8 19.7 8.2 19.9 8.4 19.7 8.4 19.2 7.6 19.2"/><polygon class="cls-2" points="6.4 20.7 6.4 21.1 6.2 21.3 5.8 21 5.8 20.7 6.4 20.7"/><polygon class="cls-2" points="6 19.2 6.4 19.7 6.4 20.5 6 20.5 6 20 5.7 19.7 5.7 19.7 5.3 19.9 5.1 19.7 5.1 19.2 6 19.2"/><rect class="cls-1" x="1.9" y="31.4" width="195.9" height="0.5"/><path class="cls-1" d="M2.1,38.4l.4-.4a.9.9,0,0,0,.6.3c.4,0,.6-.2.6-.7V34.8h.7v2.9a1.5,1.5,0,0,1-.3,1,1.6,1.6,0,0,1-.9.3A1.1,1.1,0,0,1,2.1,38.4Z"/><path class="cls-1" d="M6.3,34.7h.6l1.6,4.2H7.8L7.4,38H5.8l-.4.9H4.7Zm.9,2.6-.6-1.6L6,37.3Z"/><path class="cls-1" d="M9,34.8h.7l1.1,1.9,1-1.9h.8v4.1h-.7V36l-1.1,1.9h-.1L9.6,36v2.9H9Z"/><path class="cls-1" d="M13.4,34.8H16v.6H14v1.1h1.8v.7H14v1.1h2v.6H13.4Z"/><path class="cls-1" d="M16.3,38.4l.5-.5a1.4,1.4,0,0,0,1.1.5.5.5,0,0,0,.6-.6h0c0-.2-.1-.4-.8-.6s-1.2-.6-1.2-1.3h0a1.2,1.2,0,0,1,1.3-1.2,2.4,2.4,0,0,1,1.4.5l-.4.5a1.8,1.8,0,0,0-1-.4.6.6,0,0,0-.6.5h0c0,.3.2.5.9.7s1.1.7,1.1,1.3h0A1.2,1.2,0,0,1,17.9,39,2.5,2.5,0,0,1,16.3,38.4Z"/><path class="cls-1" d="M21.2,34.8H22l1.1,1.9,1-1.9h.8v4.1h-.7V36l-1.1,1.9H23L21.9,36v2.9h-.7Z"/><path class="cls-1" d="M25.5,36.9h0a2,2,0,0,1,1.9-2.1,1.9,1.9,0,0,1,1.3.5l-.4.5a1.8,1.8,0,0,0-.9-.4c-.7,0-1.2.6-1.2,1.5h0c0,.9.5,1.5,1.2,1.5s.6-.2.9-.5l.4.5a1.8,1.8,0,0,1-1.4.6A1.9,1.9,0,0,1,25.5,36.9Z"/><path class="cls-1" d="M29.2,34.8h.7v2l1.6-2h.9l-1.5,1.8,1.6,2.3h-.9l-1.2-1.8-.5.6v1.2h-.7Z"/><path class="cls-1" d="M32.9,34.8h2.6v.6H33.6v1.1h1.7v.7H33.6v1.1h1.9v.6H32.9Z"/><path class="cls-1" d="M36.2,34.8h.6v3.5h1.8v.6H36.2Z"/><path class="cls-1" d="M38.3,34.8h.8l1,3.1,1-3.1h.8L40.4,39h-.6Z"/><path class="cls-1" d="M42.4,34.8H45v.6H43v1.1h1.8v.7H43v1.1h2v.6H42.4Z"/><path class="cls-1" d="M46.7,37.3l-1.4-2.5h.8l.9,1.8,1-1.8h.8l-1.4,2.5v1.6h-.7Z"/><path class="cls-1" d="M50.3,38.4l.4-.5a1.4,1.4,0,0,0,1.1.5.6.6,0,0,0,.6-.6h0c0-.2-.1-.4-.8-.7s-1.2-.6-1.2-1.2h0a1.3,1.3,0,0,1,1.4-1.2,1.8,1.8,0,0,1,1.3.5l-.4.5a1.8,1.8,0,0,0-1-.4.6.6,0,0,0-.6.5h0c0,.3.2.5.9.7s1.1.7,1.1,1.3h0A1.2,1.2,0,0,1,51.8,39,2,2,0,0,1,50.3,38.4Z"/><path class="cls-1" d="M53.6,36.9h0a2,2,0,0,1,1.9-2.1,2.1,2.1,0,0,1,1.3.5l-.4.5a1.8,1.8,0,0,0-.9-.4c-.7,0-1.2.6-1.2,1.5h0c0,1,.5,1.6,1.2,1.6s.6-.2.9-.5l.4.5a1.8,1.8,0,0,1-1.4.6C54.3,39,53.6,38.2,53.6,36.9Z"/><path class="cls-1" d="M57.3,34.7H58v1.8h1.7V34.7h.7v4.2h-.7V37.2H58v1.7h-.7Z"/><path class="cls-1" d="M61,36.9h0a1.9,1.9,0,1,1,3.7,0h0A2,2,0,0,1,62.8,39,1.9,1.9,0,0,1,61,36.9Zm3,0h0c0-.9-.5-1.5-1.2-1.5s-1.1.6-1.1,1.5h0c0,.9.5,1.5,1.2,1.5S64,37.8,64,36.9Z"/><path class="cls-1" d="M65.2,36.9h0a1.9,1.9,0,1,1,3.7,0h0A2,2,0,0,1,67,39,1.9,1.9,0,0,1,65.2,36.9Zm3,0h0c0-.9-.5-1.5-1.2-1.5s-1.1.6-1.1,1.5h0c0,.9.5,1.5,1.2,1.5S68.2,37.8,68.2,36.9Z"/><path class="cls-1" d="M69.5,34.7h.7v3.6H72v.6H69.5Z"/><path class="cls-1" d="M73.8,36.9h0a2,2,0,0,1,1.9-2.1,1.9,1.9,0,0,1,1.8,2.1h0A1.9,1.9,0,0,1,75.7,39,2,2,0,0,1,73.8,36.9Zm3,0h0c0-.9-.5-1.5-1.1-1.5s-1.2.6-1.2,1.5h0c0,.9.5,1.5,1.2,1.5S76.8,37.8,76.8,36.9Z"/><path class="cls-1" d="M78.2,34.7h2.6v.7H78.9v1.2h1.7v.6H78.9v1.7h-.7Z"/><path class="cls-1" d="M82.8,34.7h2.6v.7H83.5v1.1h1.7v.6H83.5v1.2h2v.6H82.8Z"/><path class="cls-1" d="M86.1,34.7h.6l1.9,2.8V34.7h.7v4.2h-.6l-1.9-2.8v2.8h-.7Z"/><path class="cls-1" d="M89.9,36.9h0a2,2,0,0,1,1.9-2.1,1.7,1.7,0,0,1,1.4.5l-.5.5a1.3,1.3,0,0,0-.9-.4,1.4,1.4,0,0,0-1.2,1.5h0c0,.9.5,1.5,1.2,1.5a1.1,1.1,0,0,0,.8-.3v-.9h-.9v-.6h1.6v1.9a2.5,2.5,0,0,1-1.5.5A1.9,1.9,0,0,1,89.9,36.9Z"/><path class="cls-1" d="M94,34.7h.7v4.2H94Z"/><path class="cls-1" d="M95.5,34.7h.7L98,37.5V34.7h.7v4.2h-.6l-1.9-2.8v2.8h-.7Z"/><path class="cls-1" d="M99.5,34.7h2.6v.7h-1.9v1.1h1.7v.6h-1.7v1.2h1.9v.6H99.5Z"/><path class="cls-1" d="M102.8,34.7h2.6v.7h-1.9v1.1h1.7v.6h-1.7v1.2h1.9v.6h-2.6Z"/><path class="cls-1" d="M106.1,34.7h1.5a2.1,2.1,0,0,1,1.1.4,1.7,1.7,0,0,1,.3,1h0a1.2,1.2,0,0,1-.8,1.2l1,1.6h-.8l-.9-1.4h-.8v1.4h-.6Zm1.4,2.1a.7.7,0,0,0,.8-.7h0c0-.5-.3-.7-.8-.7h-.8v1.4Z"/><path class="cls-1" d="M109.7,34.7h.7v4.2h-.7Z"/><path class="cls-1" d="M111.2,34.7h.7l1.8,2.8V34.7h.7v4.2h-.6l-1.9-2.8v2.8h-.7Z"/><path class="cls-1" d="M115,36.9h0a2,2,0,0,1,2-2.1,1.7,1.7,0,0,1,1.3.5l-.4.5a1.5,1.5,0,0,0-.9-.4,1.4,1.4,0,0,0-1.2,1.5h0c0,.9.5,1.5,1.2,1.5a.9.9,0,0,0,.7-.3v-.9h-.9v-.6h1.6v1.9a2.2,2.2,0,0,1-1.4.5A1.9,1.9,0,0,1,115,36.9Z"/><path class="cls-1" d="M121.8,34.7h.7l1.5,4.2h-.7L123,38h-1.7l-.3.9h-.7Zm.9,2.6-.6-1.6-.6,1.6Z"/><path class="cls-1" d="M124.9,35.4h-1.1v-.7h2.9v.7h-1.1v3.5h-.7Z"/><path class="cls-1" d="M128.4,34.7h.7l.8,3.1.9-3.1h.6l.9,3.1.8-3.1h.7L132.6,39h-.7l-.8-3-.9,3h-.6Z"/><path class="cls-1" d="M135.1,34.7h.7l1.5,4.2h-.7l-.3-.9h-1.7l-.3.9h-.7Zm1,2.6-.6-1.6-.6,1.6Z"/><path class="cls-1" d="M137.5,38.4l.4-.5a1.6,1.6,0,0,0,1.1.5.7.7,0,0,0,.7-.6h0c0-.2-.2-.4-.8-.7s-1.3-.6-1.3-1.2h0a1.3,1.3,0,0,1,1.4-1.2,1.7,1.7,0,0,1,1.3.5l-.4.5a1.8,1.8,0,0,0-.9-.4c-.4,0-.7.2-.7.5h0c0,.3.2.5.9.7s1.2.7,1.2,1.3h0A1.3,1.3,0,0,1,139,39,2.2,2.2,0,0,1,137.5,38.4Z"/><path class="cls-1" d="M141,34.7h.6v1.8h1.7V34.7h.7v4.2h-.7V37.2h-1.7v1.7H141Z"/><path class="cls-1" d="M144.8,34.7h.7v4.2h-.7Z"/><path class="cls-1" d="M146.3,34.7h.7l1.8,2.8V34.7h.7v4.2h-.6L147,36.1v2.8h-.7Z"/><path class="cls-1" d="M150.1,36.9h0a2,2,0,0,1,2-2.1,1.7,1.7,0,0,1,1.3.5l-.4.5a1.5,1.5,0,0,0-.9-.4,1.4,1.4,0,0,0-1.2,1.5h0c0,.9.5,1.5,1.2,1.5a.8.8,0,0,0,.7-.3v-.9H152v-.6h1.5v1.9a2.2,2.2,0,0,1-1.4.5A1.9,1.9,0,0,1,150.1,36.9Z"/><path class="cls-1" d="M155,35.4h-1.1v-.7h2.9v.7h-1.1v3.5H155Z"/><path class="cls-1" d="M157,36.9h0a1.9,1.9,0,0,1,1.8-2.1,2,2,0,0,1,1.9,2.1h0a2,2,0,0,1-1.9,2.1A1.9,1.9,0,0,1,157,36.9Zm3,0h0c0-.9-.5-1.5-1.2-1.5s-1.1.6-1.1,1.5h0c0,.9.5,1.5,1.1,1.5S160,37.8,160,36.9Z"/><path class="cls-1" d="M161.3,34.7h.7l1.8,2.8V34.7h.7v4.2h-.6L162,36.1v2.8h-.7Z"/><path class="cls-1" d="M166.6,37.3V34.7h.7v2.6c0,.7.4,1.1.9,1.1a.9.9,0,0,0,.9-1V34.7h.7v2.6a1.5,1.5,0,0,1-1.6,1.7A1.6,1.6,0,0,1,166.6,37.3Z"/><path class="cls-1" d="M170.5,34.7h.7l1.8,2.8V34.7h.7v4.2h-.6l-1.9-2.8v2.8h-.7Z"/><path class="cls-1" d="M174.5,34.7h.7v4.2h-.7Z"/><path class="cls-1" d="M175.7,34.7h.8l1,3.2,1-3.2h.8L177.8,39h-.6Z"/><path class="cls-1" d="M179.8,34.7h2.6v.7h-2v1.1h1.8v.6h-1.8v1.2h2v.6h-2.6Z"/><path class="cls-1" d="M183,34.7h1.6a2.1,2.1,0,0,1,1.1.4,1.7,1.7,0,0,1,.3,1h0a1.2,1.2,0,0,1-.8,1.2l.9,1.6h-.8l-.8-1.4h-.8v1.4H183Zm1.5,2.1a.7.7,0,0,0,.8-.7h0c0-.5-.3-.7-.8-.7h-.8v1.4Z"/><path class="cls-1" d="M186.4,38.4l.4-.5a1.4,1.4,0,0,0,1.1.5.6.6,0,0,0,.6-.6h0c0-.2-.1-.4-.8-.7s-1.2-.6-1.2-1.2h0a1.3,1.3,0,0,1,1.4-1.2,1.7,1.7,0,0,1,1.3.5l-.4.5a1.8,1.8,0,0,0-1-.4.6.6,0,0,0-.6.5h0c0,.3.2.5.9.7s1.1.7,1.1,1.3h0a1.2,1.2,0,0,1-1.3,1.2A2,2,0,0,1,186.4,38.4Z"/><path class="cls-1" d="M189.9,34.7h.7v4.2h-.7Z"/><path class="cls-1" d="M192.2,35.4h-1.1v-.7H194v.7h-1.1v3.5h-.7Z"/><path class="cls-1" d="M195.6,37.3l-1.4-2.6h.8l.9,1.9,1-1.9h.8l-1.4,2.6v1.6h-.7Z"/><path class="cls-1" d="M105.6,24.1c0,.9-.1,1.2.9,1.2,3.1,0,3.5-1.5,3.7-1.5s.1.2.1.2a2.7,2.7,0,0,1-.7,1.4c-.4.5-.7.5-1.3.5h-4.5c-.1,0-.2,0-.2-.2l.6-.3c.3-.2.3-.6.3-1.3V16.7c0-.7-1.1-.6-1.1-.9s.1-.2.3-.2h2.6c.1,0,.2,0,.2.2s-.9,0-.9,1.3Z"/><path class="cls-1" d="M111.6,22.2c0,2.3,1.3,3.1,2.1,3.1s1.6-.8,1.9-.8h0a2.8,2.8,0,0,1-2.3,1.4c-2,0-2.6-2-2.6-3s.9-3.4,2.5-3.4a2.5,2.5,0,0,1,2.3,2.3c0,.3-.1.3-.4.3Zm2.6-.4c.2,0,.2-.1.2-.3a1.6,1.6,0,0,0-1.4-1.6c-.8,0-1.4,1.1-1.4,1.9Z"/><path class="cls-1" d="M119.6,21.2a1.2,1.2,0,0,0-1.3-1.2c-.7,0-1.2.1-1.2.9a4.3,4.3,0,0,0,.1.5c0,.2,0,.3-.3.3s-.6-.2-.6-.5a2.1,2.1,0,0,1,2.2-1.6c.8,0,2.1.3,2.1,1.5v3c0,.5-.2,1.3.5,1.3h.2c.1,0,.2,0,.2.1s-.6.4-.7.4a1.2,1.2,0,0,1-1.1-.8,2.5,2.5,0,0,1-2,.9,1.3,1.3,0,0,1-1.4-1.4c0-.8.3-1.7,3.3-2.2Zm0,1.5c-.8.2-2.4.4-2.4,1.7s.4,1.2,1.1,1.2,1.3-.4,1.3-1.2Z"/><path class="cls-1" d="M125.9,16.7c0-.9-1-.5-1-.8s.1-.1.1-.2,1.4-.7,1.7-.7.2.1.2.3v9.9c0,.1.3.3.7.3s.1,0,.1.2-.3.2-.8.2h-.8a.2.2,0,0,1-.2-.2V25h0a2.3,2.3,0,0,1-1.9,1c-1.4,0-2.3-1.5-2.3-3s1.1-3.4,2.7-3.4a2.5,2.5,0,0,1,1.5.5Zm0,4.9a1.6,1.6,0,0,0-1.7-1.7c-1.2,0-1.8,1.3-1.8,2.5s.8,3,2.1,3a1.3,1.3,0,0,0,1.4-1.3Z"/><path class="cls-1" d="M129.1,22.2c0,2.3,1.3,3.1,2.1,3.1s1.5-.8,1.8-.8a.1.1,0,0,1,.1.1,3,3,0,0,1-2.4,1.4c-1.9,0-2.6-2-2.6-3s.9-3.4,2.6-3.4a2.5,2.5,0,0,1,2.3,2.3c0,.3-.2.3-.5.3Zm2.5-.4a.3.3,0,0,0,.3-.3,1.6,1.6,0,0,0-1.5-1.6c-.8,0-1.3,1.1-1.3,1.9Z"/><path class="cls-1" d="M135.4,24.6c0,1.4,1.1.7,1.1,1.1s0,.2-.2.2h-2.6c0-.4.7-.3.7-.9V21.2c0-.9-.9-.5-.9-.8v-.2c1-.2,1.3-.7,1.6-.7a.2.2,0,0,1,.2.2v1.1h0c.3-.4.7-1.2,1.3-1.2s.8.4.8.7-.3.6-.4.6-.4-.3-.9-.3-.8.6-.8.8Z"/><path class="cls-1" d="M137.9,21.3a1.7,1.7,0,0,1,1.8-1.7c.2,0,1.1.1,1.2.3a2,2,0,0,1,.1.7c0,.4.1.6-.1.6s-.3-1.2-1.5-1.2a.8.8,0,0,0-.9.9c0,.5.3.8,1.7,1.4a1.6,1.6,0,0,1,1.1,1.7,1.9,1.9,0,0,1-1.8,2c-.9,0-1.1-.4-1.4-.4s-.3-.1-.3-1.2,0-.7.1-.7.2,1.9,1.6,1.9a1.2,1.2,0,0,0,1.2-1.2c0-.8-.7-1-1.2-1.3S137.9,22.4,137.9,21.3Z"/><path class="cls-1" d="M143.5,20.6a3,3,0,0,1,1.9-1c1.7,0,2.2,1.6,2.2,2.9v2.4c0,.7,1,.4,1,.8s-.1.2-.2.2h-2.2a.2.2,0,0,1-.2-.2c0-.2.6-.2.6-.7V22.3c0-1.8-1.1-2.1-1.5-2.1s-1.6.6-1.6,1.3v3.1c0,1.2,1.2.8,1.2,1.1s-.1.2-.2.2h-2.6c-.1,0-.1-.1-.1-.2s.8-.1.8-.8V16.7c0-.9-1-.5-1-.8v-.2c.9-.2,1.4-.7,1.7-.7s.1.1.1.3Z"/><path class="cls-1" d="M149.9,21.2c0-.9-.7-.5-.7-.8s0-.2.1-.2,1.1-.7,1.4-.7a.2.2,0,0,1,.2.2v5.2c0,.8,1,.4,1,.8s-.1.2-.3.2h-2.1c-.1,0-.1,0-.2-.2s.6.2.6-1.1Zm1-3.8c0,.2-.3.7-.5.7s-.6-.6-.6-.7.4-.8.6-.8S150.9,17.2,150.9,17.4Z"/><path class="cls-1" d="M153.9,27.7c0,.9,1.2.6,1.2.9s-.1.2-.3.2h-2.4c-.1,0-.1,0-.1-.1s.6-.2.6-1.1V21.2c0-.9-.9-.5-.9-.8l.2-.2c1-.2,1.2-.7,1.5-.7a.2.2,0,0,1,.2.2v.9a2.3,2.3,0,0,1,1.8-1c1.5,0,2.3,1.4,2.3,2.9s-.8,3.5-2.8,3.5a3.3,3.3,0,0,1-1.3-.4Zm0-3.4c0,.8.8,1.3,1.7,1.3s1.7-1.2,1.7-2.4-.6-2.9-2-2.9a1.3,1.3,0,0,0-1.4,1.1Z"/><path class="cls-1" d="M166.3,15.5c2.5,0,3.1,1.1,3.5,1.1h.3c.2,0,.2.2.2,1.1s.2,1.3-.1,1.3-.2-.4-.3-.5-1.7-2.5-3.4-2.5-3.8,1.9-3.8,4.6,1.3,5,3.9,5a3.8,3.8,0,0,0,3.5-2.1.2.2,0,0,1,.2-.2v.2l-.3,1.4c0,.1-1,1.2-3.9,1.2s-4.6-2.1-4.6-5.1S163.6,15.5,166.3,15.5Z"/><path class="cls-1" d="M171.9,22.2c0,2.3,1.3,3.1,2.1,3.1s1.5-.8,1.8-.8a.1.1,0,0,1,.1.1,3,3,0,0,1-2.4,1.4c-1.9,0-2.6-2-2.6-3s.9-3.4,2.6-3.4a2.5,2.5,0,0,1,2.3,2.3c0,.3-.2.3-.5.3Zm2.5-.4a.3.3,0,0,0,.3-.3,1.6,1.6,0,0,0-1.5-1.6c-.8,0-1.3,1.1-1.3,1.9Z"/><path class="cls-1" d="M178.2,24.7c0,1,1.1.6,1.1,1s-.1.2-.3.2h-2.3c-.2,0-.3,0-.3-.2s.8,0,.8-.9V21.2c0-.9-1-.5-1-.8l.2-.2c1-.2,1.3-.7,1.6-.7a.2.2,0,0,1,.2.2v1a2.5,2.5,0,0,1,1.8-1.1c1.8,0,2.2,1.6,2.2,2.7v2.4c0,1,1,.6,1,1s-.1.2-.2.2h-2.1c-.2,0-.2,0-.2-.2s.5,0,.5-.9V22.1c0-.8-.4-1.9-1.5-1.9s-1.6.9-1.5,1.2Z"/><path class="cls-1" d="M184.2,20.4h-.7a7.1,7.1,0,0,1,1-1.2c.3-.3.4-.7.5-.7s.2.3.2,1.4h1.4a.7.7,0,0,0,.5-.3c.1,0,.1.1.1.2a.3.3,0,0,1-.1.2l-.2.5h-1.7v4.2a.8.8,0,0,0,.9.9c.7,0,.9-.4,1.1-.4a.3.3,0,0,1,.1.2c0,.2-.7.7-1.6.7s-1.5-.2-1.5-1.7Z"/><path class="cls-1" d="M188.6,22.2c0,2.3,1.3,3.1,2.1,3.1s1.5-.8,1.8-.8a.1.1,0,0,1,.1.1,2.8,2.8,0,0,1-2.3,1.4c-2,0-2.7-2-2.7-3s1-3.4,2.6-3.4a2.5,2.5,0,0,1,2.3,2.3c0,.3-.1.3-.4.3Zm2.6-.4c.1,0,.2-.1.2-.3a1.6,1.6,0,0,0-1.4-1.6c-.8,0-1.4,1.1-1.4,1.9Z"/><path class="cls-1" d="M194.9,24.6c0,1.4,1.2.7,1.2,1.1s-.1.2-.3.2h-2.5c0-.4.6-.3.6-.9V21.2c0-.9-.9-.5-.9-.8l.2-.2c1-.2,1.2-.7,1.5-.7a.2.2,0,0,1,.2.2v1.1h0c.3-.4.8-1.2,1.3-1.2s.9.4.9.7-.3.6-.5.6-.4-.3-.9-.3-.8.6-.8.8Z"/><path class="cls-1" d="M30.7,17.1c0-.1.1-.7-.1-.7H28.5c-.8,0-.9.2-1.1,1s-.1.4-.2.4l-.2-.2.2-1.4c0-.2,0-.6.2-.6H35c.3,0,.3.1.3.4v1.2c0,.1,0,.3-.1.3s.2-1.1-1.2-1.1H32.3c-.6,0-.5,0-.5.7v7.4c0,1.2,1,.8,1,1.2s0,.2-.1.2H29.9c-.2,0-.2-.1-.2-.2s1-.2,1-1.1Z"/><path class="cls-1" d="M35.3,22.2c0,2.3,1.3,3.1,2.1,3.1s1.6-.8,1.9-.8h0A2.8,2.8,0,0,1,37,26c-1.9,0-2.6-2-2.6-3s.9-3.4,2.5-3.4a2.5,2.5,0,0,1,2.3,2.3c0,.3-.1.3-.4.3Zm2.6-.4a.3.3,0,0,0,.3-.3,1.7,1.7,0,0,0-1.5-1.6c-.8,0-1.4,1.1-1.4,1.9Z"/><path class="cls-1" d="M39.9,22.9a3.1,3.1,0,0,1,2.9-3.3c.7,0,1.6.2,1.6.5V21c0,.2,0,.3-.1.3L44,21a1.7,1.7,0,0,0-1.6-.9c-1.1,0-1.5,1.3-1.5,2.3s.8,2.9,2.3,2.9,1.6-.9,1.7-.9h.2A2.7,2.7,0,0,1,42.5,26,2.9,2.9,0,0,1,39.9,22.9Z"/><path class="cls-1" d="M47.1,20.6a3,3,0,0,1,1.9-1c1.7,0,2.2,1.6,2.2,2.9v2.4c0,.7,1,.4,1,.8s-.1.2-.2.2H49.8a.2.2,0,0,1-.2-.2c0-.2.6-.2.6-.7V22.3c0-1.8-1.1-2.1-1.5-2.1s-1.6.6-1.6,1.3v3.1c0,1.2,1.2.8,1.2,1.1s-.1.2-.2.2H45.5c-.1,0-.1-.1-.1-.2s.8-.1.8-.8V16.7c0-.9-1-.5-1-.8v-.2c.9-.2,1.4-.7,1.7-.7s.1.1.1.3Z"/><path class="cls-1" d="M54.2,24.7c0,1,1.2.6,1.2,1s-.1.2-.3.2H52.7c-.1,0-.2,0-.2-.2s.8,0,.8-.9V21.2c0-.9-1-.5-1-.8v-.2c1.1-.2,1.4-.7,1.7-.7v1.2c0,.2.7-1.1,1.9-1.1s2.1,1.6,2.1,2.7v2.4c0,1,1.1.6,1.1,1s-.1.2-.3.2H57c-.2,0-.3,0-.3-.2s.6,0,.6-.9V22.1c0-.8-.5-1.9-1.5-1.9a1.6,1.6,0,0,0-1.6,1.2Z"/><path class="cls-1" d="M59.6,22.9a3.1,3.1,0,0,1,2.9-3.3c1,0,2.8.5,2.8,3.2A3,3,0,0,1,62.5,26,2.8,2.8,0,0,1,59.6,22.9Zm4.8.2c0-1.5-.6-3.2-2.1-3.2s-1.8,1.3-1.8,2.5.6,3.3,2.1,3.3S64.4,24.9,64.4,23.1Z"/><path class="cls-1" d="M67.8,24.7c0,1,1.1.6,1.1,1s-.1.2-.3.2H66.3c-.1,0-.1-.1-.1-.2s.6-.2.6-.8V16.7c0-.9-.9-.5-.9-.8l.2-.2c1-.2,1.2-.7,1.5-.7s.2.1.2.3Z"/><path class="cls-1" d="M69.3,22.9a3.1,3.1,0,0,1,2.9-3.3c1,0,2.8.5,2.8,3.2A3,3,0,0,1,72.2,26,2.8,2.8,0,0,1,69.3,22.9Zm4.8.2c0-1.5-.6-3.2-2.1-3.2s-1.8,1.3-1.8,2.5.6,3.3,2.1,3.3S74.1,24.9,74.1,23.1Z"/><path class="cls-1" d="M79.8,20.2c.6,0,.6-.9.8-.9s.1.1.1.2-.2,1.2-.6,1.5v.8A2.1,2.1,0,0,1,78,24h-.9c-.3,0-.6.4-.6.8s-.2.7,1.5.7,2.6-.2,2.6,1.2-.7,2.2-2.9,2.2-2.2-.4-2.2-1.6a1.4,1.4,0,0,1,.9-1.2c-.3-.1-.5-.6-.5-1.1a2,2,0,0,1,.7-1.2h0a2.3,2.3,0,0,1-.8-1.8,2.2,2.2,0,0,1,2.1-2.3C79,19.6,79.4,20.2,79.8,20.2Zm-2,8.2c1.8,0,2.1-.9,2.1-1.4s-.4-.6-1.8-.7H76.8c-.4,0-.7.6-.7,1S77.1,28.4,77.8,28.4Zm.2-8.5c-1,0-1.3.9-1.3,1.8s.4,2,1.3,2,1.3-.8,1.3-1.8S78.9,19.9,78,19.9Z"/><path class="cls-1" d="M83.2,28.7c0,.1-.2.1-.4.1s-.5,0-.5-.1,1.2-1.4,1.2-2.6a3.2,3.2,0,0,0-.3-.9l-1.7-4.7c-.1-.3-.6-.4-.6-.6H83c.2,0,.3,0,.3.2s-.7,0-.7.5v.4L84,24.8l1-3.2a2.4,2.4,0,0,0,.2-.8c0-.8-.9-.6-.9-.9h2.1c0,.4-.5,0-.7.9Z"/><path class="cls-1" d="M95.1,17.7c0,.1,0,.1-.1.1l-.2-.2A2.1,2.1,0,0,0,93,16.1a1,1,0,0,0-1.1,1.1c0,1,2,3.3,4.8,6.2a2.4,2.4,0,0,0,.4-1.5c0-1.7-1.3-1.2-1.3-1.6s.2-.2.3-.2h2a.2.2,0,0,1,.2.2c0,.2-.5.1-.6.7a8.2,8.2,0,0,1-.6,2.7c.5.4,1.7,1.8,2.3,1.8h.5c.1,0,.1,0,.1.1s-.6.4-1.1.4-1.7-.8-2.4-1.4A4.3,4.3,0,0,1,93.3,26a3.5,3.5,0,0,1-3.6-3.6c0-1.6.7-2.8,2.1-3.1a3.2,3.2,0,0,1-.6-1.7,1.9,1.9,0,0,1,2.1-1.9,3.3,3.3,0,0,1,1.4.4c.1,0,.1-.2.2-.2s.2.3.2.4Zm1,6.6c-2.8-2.7-3.8-4.6-4.3-4.6s-1.4,1.1-1.4,1.9a3.6,3.6,0,0,0,3.4,3.6A3.3,3.3,0,0,0,96.1,24.3Z"/></svg>